<svg width="24" height="25" viewBox="0 0 24 25" fill="none" xmlns="http://www.w3.org/2000/svg">
<path d="M12 4.5625C16.41 4.5625 20 8.1525 20 12.5625C20 16.9725 16.41 20.5625 12 20.5625C7.59 20.5625 4 16.9725 4 12.5625C4 8.1525 7.59 4.5625 12 4.5625ZM12 2.5625C6.48 2.5625 2 7.0425 2 12.5625C2 18.0825 6.48 22.5625 12 22.5625C17.52 22.5625 22 18.0825 22 12.5625C22 7.0425 17.52 2.5625 12 2.5625ZM13 12.5625L13 8.5625L11 8.5625L11 12.5625L8 12.5625L12 16.5625L16 12.5625L13 12.5625Z" fill="#73C9A5"/>
</svg>
