<svg width="48" height="49" viewBox="0 0 48 49" fill="none" xmlns="http://www.w3.org/2000/svg">
<rect y="0.5625" width="48" height="48" rx="6" fill="#73C9A5"/>
<path d="M31 15.5625H17C15.9 15.5625 15 16.4625 15 17.5625V31.5625C15 32.6625 15.9 33.5625 17 33.5625H31C32.1 33.5625 33 32.6625 33 31.5625V17.5625C33 16.4625 32.1 15.5625 31 15.5625ZM31 31.5625H17V17.5625H31V31.5625ZM19 22.5625H21V29.5625H19V22.5625ZM23 19.5625H25V29.5625H23V19.5625ZM27 25.5625H29V29.5625H27V25.5625Z" fill="#242930"/>
</svg>
