<svg width="40" height="44" viewBox="0 0 40 44" fill="none" xmlns="http://www.w3.org/2000/svg">
<path fill-rule="evenodd" clip-rule="evenodd" d="M14.8435 13.8359L12.4829 17.9171L10.2367 14.0209L12.5856 9.93971H28.9926L32.4763 3.89722H9.09898L4.49225 11.8878C7.94805 17.8579 11.3985 23.828 14.8435 29.798H21.8109C20.061 26.769 18.312 23.7404 16.564 20.7123L16.0796 19.874H32.0476L38.9151 31.7652L32.0476 43.6374H6.85289L0.0558404 31.6507L3.46906 25.7227L5.72985 29.6175L4.50695 31.7506L9.11368 39.7412H29.7883L34.4097 31.7506L29.803 23.76H22.8356C24.3134 26.3339 25.7922 28.9074 27.272 31.4804L27.4394 31.7461L26.3163 33.6943H12.5974C8.44473 26.5135 4.29748 19.3382 0.155622 12.1682L0 11.8834L6.85289 -0.0078125H39.2411L31.2563 13.8359H14.8435Z" fill="#114A2C"/>
</svg>
