<svg width="265" height="150" viewBox="0 0 265 150" fill="none" xmlns="http://www.w3.org/2000/svg">
<g filter="url(#filter0_d_2201_232)">
<rect x="2" y="1" width="261" height="146" rx="10" fill="#242930"/>
</g>
<path d="M107.481 66.5487C107.481 74.4033 115.925 75.4636 115.925 81.1189C115.925 83.0825 115.061 83.7894 113.686 83.7894C112.312 83.7894 111.448 83.0825 111.448 81.1189V79.1553H107.364V80.844C107.364 85.2425 109.563 87.756 113.804 87.756C118.046 87.756 120.245 85.2425 120.245 80.844C120.245 72.9894 111.801 71.9291 111.801 66.2738C111.801 64.3102 112.587 63.564 113.961 63.564C115.336 63.564 116.121 64.3102 116.121 66.2738V67.4127H120.206V66.5487C120.206 62.1502 118.046 59.6367 113.844 59.6367C109.641 59.6367 107.481 62.1502 107.481 66.5487Z" fill="white"/>
<path d="M126.497 87.4418H130.817V78.3305L136.276 59.9509H132.152L128.853 72.4789L125.554 59.9509H121.038L126.497 78.3305V87.4418Z" fill="white"/>
<path d="M143.992 59.9509H137.983V87.4418H141.754V68.0018L144.974 87.4418H149.058L152.043 67.7269V87.4418H156.127V59.9509H150.119L147.173 79.4694L143.992 59.9509Z" fill="white"/>
<path d="M158.013 63.8782H162.529V87.4418H166.849V63.8782H171.366V59.9509H158.013V63.8782Z" fill="white"/>
<path d="M186.7 87.4418C186.268 86.4207 186.228 85.4389 186.228 84.1036V79.8622C186.228 76.9953 185.521 74.9138 183.361 74.0105C185.286 73.1073 186.189 71.2614 186.189 68.4338V66.2738C186.189 62.0324 184.265 59.9509 179.788 59.9509H173.268V87.4418H177.588V76.2491H179.081C181.044 76.2491 181.908 77.1916 181.908 79.7444V84.0644C181.908 86.3029 182.065 86.7349 182.301 87.4418H186.7ZM179.67 63.8782C181.201 63.8782 181.869 64.7422 181.869 66.7058V69.4156C181.869 71.6149 180.887 72.3218 179.277 72.3218H177.588V63.8782H179.67Z" fill="white"/>
<path d="M189.07 87.4418H193.39V59.9509H189.07V87.4418Z" fill="white"/>
<path d="M204.992 77.1916V81.1189C204.992 83.0825 204.128 83.7894 202.753 83.7894C201.379 83.7894 200.515 83.0825 200.515 81.1189V66.2738C200.515 64.3102 201.379 63.564 202.753 63.564C204.128 63.564 204.992 64.3102 204.992 66.2738V69.2193H209.076V66.5487C209.076 62.1502 206.877 59.6367 202.635 59.6367C198.394 59.6367 196.195 62.1502 196.195 66.5487V80.844C196.195 85.2425 198.394 87.756 202.635 87.756C206.877 87.756 209.076 85.2425 209.076 80.844V77.1916H204.992Z" fill="white"/>
<g clip-path="url(#clip0_2201_232)">
<path fill-rule="evenodd" clip-rule="evenodd" d="M69.8435 65.8359L67.4829 69.9171L65.2367 66.0209L67.5856 61.9397H83.9926L87.4763 55.8972H64.099L59.4923 63.8878C62.948 69.8579 66.3985 75.828 69.8435 81.798H76.8109C75.061 78.769 73.312 75.7404 71.564 72.7123L71.0796 71.874H87.0476L93.9151 83.7652L87.0476 95.6374H61.8529L55.0558 83.6507L58.4691 77.7227L60.7298 81.6175L59.5069 83.7506L64.1137 91.7412H84.7883L89.4097 83.7506L84.803 75.76H77.8356C79.3134 78.3339 80.7922 80.9074 82.272 83.4804L82.4394 83.7461L81.3163 85.6943H67.5974C63.4447 78.5135 59.2975 71.3382 55.1556 64.1682L55 63.8834L61.8529 51.9922H94.2411L86.2563 65.8359H69.8435Z" fill="#7F46F0"/>
</g>
<defs>
<filter id="filter0_d_2201_232" x="0" y="0" width="265" height="150" filterUnits="userSpaceOnUse" color-interpolation-filters="sRGB">
<feFlood flood-opacity="0" result="BackgroundImageFix"/>
<feColorMatrix in="SourceAlpha" type="matrix" values="0 0 0 0 0 0 0 0 0 0 0 0 0 0 0 0 0 0 127 0" result="hardAlpha"/>
<feOffset dy="1"/>
<feGaussianBlur stdDeviation="1"/>
<feColorMatrix type="matrix" values="0 0 0 0 0.333333 0 0 0 0 0.411765 0 0 0 0 0.529412 0 0 0 0.1 0"/>
<feBlend mode="normal" in2="BackgroundImageFix" result="effect1_dropShadow_2201_232"/>
<feBlend mode="normal" in="SourceGraphic" in2="effect1_dropShadow_2201_232" result="shape"/>
</filter>
<clipPath id="clip0_2201_232">
<rect width="39.2425" height="43.6364" fill="white" transform="translate(55 52)"/>
</clipPath>
</defs>
</svg>
