<svg width="24" height="25" viewBox="0 0 24 25" fill="none" xmlns="http://www.w3.org/2000/svg">
<g clip-path="url(#clip0_48_576)">
<path fill-rule="evenodd" clip-rule="evenodd" d="M7.86966 2.12273C6.24177 2.19618 4.83081 2.59418 3.69149 3.72869C2.54819 4.86916 2.15514 6.28571 2.08151 7.89666C2.03574 8.90214 1.76809 16.4983 2.54422 18.4904C3.06761 19.8343 4.09844 20.8677 5.45468 21.3927C6.08752 21.6389 6.80994 21.8055 7.86966 21.8542C16.7305 22.2552 20.0151 22.0369 21.4002 18.4904C21.6459 17.8591 21.8151 17.1373 21.8619 16.0802C22.2669 7.19671 21.7962 5.27115 20.2519 3.72869C19.027 2.50683 17.5862 1.67508 7.86966 2.12273ZM7.95123 20.0676C6.98107 20.0239 6.4547 19.8622 6.10345 19.7262C5.21986 19.3828 4.55617 18.7219 4.21487 17.8434C3.62382 16.3298 3.81985 9.14052 3.87259 7.97722C3.92433 6.83774 4.15517 5.79634 4.95916 4.99236C5.9542 3.99978 7.23978 3.51332 15.9931 3.90837C17.1354 3.95998 18.1792 4.19036 18.9852 4.99236C19.9803 5.98493 20.4738 7.2804 20.0718 16.0002C20.028 16.9679 19.8658 17.4931 19.7295 17.8434C18.829 20.1512 16.7573 20.4715 7.95123 20.0676ZM16.0897 6.68962C16.0897 7.34671 16.624 7.88103 17.2837 7.88103C17.9434 7.88103 18.4788 7.34671 18.4788 6.68962C18.4788 6.03254 17.9434 5.49871 17.2837 5.49871C16.624 5.49871 16.0897 6.03254 16.0897 6.68962ZM6.86267 11.988C6.86267 14.8029 9.15027 17.0851 11.9722 17.0851C14.7941 17.0851 17.0817 14.8029 17.0817 11.988C17.0817 9.17302 14.7941 6.89226 11.9722 6.89226C9.15027 6.89226 6.86267 9.17302 6.86267 11.988ZM8.65573 11.988C8.65573 10.1616 10.1403 8.67986 11.9722 8.67986C13.8041 8.67986 15.2887 10.1616 15.2887 11.988C15.2887 13.8153 13.8041 15.2975 11.9722 15.2975C10.1403 15.2975 8.65573 13.8153 8.65573 11.988Z" fill="white"/>
</g>
<defs>
<clipPath id="clip0_48_576">
<rect width="20" height="20" fill="white" transform="translate(2 2)"/>
</clipPath>
</defs>
</svg>
