<svg width="415" height="118" viewBox="0 0 415 118" fill="none" xmlns="http://www.w3.org/2000/svg">
<rect width="415" height="118" fill="none"/>
<rect x="9" y="9" width="100" height="100" fill="#fee737"/>
<path d="M29.0607 60.391C29.4846 66.9906 32.1137 73.2564 36.5261 78.1824C40.9385 83.1085 46.878 86.409 53.3914 87.5543C59.9047 88.6995 66.6139 87.623 72.4419 84.4975C78.27 81.3721 82.8788 76.379 85.5286 70.3198C88.1783 64.2606 88.7152 57.4868 87.0531 51.0858C85.391 44.6849 81.6263 39.028 76.3634 35.0235C71.1005 31.0189 64.6447 28.8989 58.0323 29.0037C51.4199 29.1086 45.0345 31.4322 39.9012 35.6017L43.0172 39.438C47.2905 35.9671 52.6061 34.0328 58.1106 33.9455C63.6152 33.8582 68.9894 35.623 73.3706 38.9567C77.7518 42.2904 80.8857 46.9994 82.2693 52.328C83.653 57.6565 83.206 63.2954 81.0002 68.3395C78.7944 73.3835 74.9578 77.5401 70.1061 80.1419C65.2545 82.7438 59.6693 83.6399 54.2473 82.6866C48.8252 81.7332 43.8807 78.9856 40.2076 74.8848C36.5345 70.7841 34.3458 65.5681 33.9929 60.0741L29.0607 60.391Z" fill="#114a2c"/>
<path d="M58.5 24C53.9694 24 49.4832 24.8924 45.2974 26.6262C41.1117 28.3599 37.3084 30.9012 34.1048 34.1048C30.9012 37.3084 28.3599 41.1117 26.6262 45.2974C24.8924 49.4832 24 53.9694 24 58.5C24 63.0306 24.8924 67.5168 26.6262 71.7026C28.3599 75.8883 30.9012 79.6916 34.1048 82.8952C37.3084 86.0988 41.1117 88.6401 45.2974 90.3738C49.4832 92.1076 53.9694 93 58.5 93L58.5 89.5681C54.4201 89.5681 50.3801 88.7645 46.6107 87.2032C42.8414 85.6419 39.4165 83.3534 36.5315 80.4685C33.6466 77.5835 31.3581 74.1586 29.7968 70.3893C28.2355 66.6199 27.4319 62.5799 27.4319 58.5C27.4319 54.4201 28.2355 50.3801 29.7968 46.6107C31.3581 42.8414 33.6466 39.4165 36.5315 36.5315C39.4165 33.6466 42.8414 31.3581 46.6107 29.7968C50.3801 28.2355 54.4201 27.4319 58.5 27.4319L58.5 24Z" fill="#114a2c"/>
<path d="M66.6133 93.0324C73.5285 91.3593 79.7573 87.5891 84.4465 82.2382C89.1357 76.8874 92.0559 70.2177 92.8072 63.1427L89.3945 62.7804C88.718 69.1516 86.0882 75.1578 81.8655 79.9764C77.6428 84.7949 72.0336 88.1901 65.8062 89.6968L66.6133 93.0324Z" fill="#114a2c"/>
<path d="M150.989 80V73.4336L150.563 72.0352V60.544C150.563 58.3147 149.894 56.592 148.557 55.376C147.219 54.1195 145.193 53.4912 142.477 53.4912C140.653 53.4912 138.849 53.7749 137.066 54.3424C135.323 54.9099 133.843 55.7003 132.627 56.7136L129.648 51.1808C131.391 49.8432 133.458 48.8501 135.85 48.2016C138.282 47.5125 140.795 47.168 143.389 47.168C148.091 47.168 151.718 48.3029 154.272 50.5728C156.866 52.8021 158.163 56.2677 158.163 60.9696V80H150.989ZM140.774 80.4256C138.342 80.4256 136.214 80.0203 134.39 79.2096C132.566 78.3584 131.148 77.2032 130.134 75.744C129.162 74.2443 128.675 72.5621 128.675 70.6976C128.675 68.8736 129.101 67.232 129.952 65.7728C130.844 64.3136 132.283 63.1584 134.269 62.3072C136.255 61.456 138.89 61.0304 142.173 61.0304H151.597V66.0768H142.72C140.126 66.0768 138.383 66.5024 137.491 67.3536C136.599 68.1643 136.154 69.1776 136.154 70.3936C136.154 71.7717 136.701 72.8661 137.795 73.6768C138.89 74.4875 140.41 74.8928 142.355 74.8928C144.22 74.8928 145.882 74.4672 147.341 73.616C148.841 72.7648 149.915 71.5083 150.563 69.8464L151.84 74.4064C151.11 76.3115 149.793 77.7909 147.888 78.8448C146.023 79.8987 143.652 80.4256 140.774 80.4256ZM182.69 92.2208C179.69 92.2208 176.752 91.8155 173.874 91.0048C171.036 90.2347 168.706 89.0997 166.882 87.6L170.287 81.8848C171.705 83.0603 173.489 83.9925 175.637 84.6816C177.826 85.4112 180.035 85.776 182.264 85.776C185.831 85.776 188.446 84.9451 190.107 83.2832C191.769 81.6619 192.6 79.2096 192.6 75.9264V70.1504L193.208 62.7936L192.965 55.4368V47.5328H200.2V75.0752C200.2 80.9525 198.701 85.2693 195.701 88.0256C192.702 90.8224 188.364 92.2208 182.69 92.2208ZM181.717 78.5408C178.636 78.5408 175.84 77.8923 173.327 76.5952C170.854 75.2576 168.888 73.4133 167.429 71.0624C166.01 68.7115 165.301 65.9552 165.301 62.7936C165.301 59.6725 166.01 56.9365 167.429 54.5856C168.888 52.2347 170.854 50.4107 173.327 49.1136C175.84 47.8165 178.636 47.168 181.717 47.168C184.473 47.168 186.946 47.7152 189.135 48.8096C191.323 49.904 193.066 51.6064 194.363 53.9168C195.701 56.2272 196.37 59.1861 196.37 62.7936C196.37 66.4011 195.701 69.3803 194.363 71.7312C193.066 74.0416 191.323 75.7643 189.135 76.8992C186.946 77.9936 184.473 78.5408 181.717 78.5408ZM182.872 72.096C184.777 72.096 186.48 71.7109 187.979 70.9408C189.479 70.1301 190.634 69.0357 191.445 67.6576C192.296 66.2389 192.722 64.6176 192.722 62.7936C192.722 60.9696 192.296 59.3685 191.445 57.9904C190.634 56.5717 189.479 55.4976 187.979 54.768C186.48 53.9979 184.777 53.6128 182.872 53.6128C180.967 53.6128 179.244 53.9979 177.704 54.768C176.204 55.4976 175.029 56.5717 174.178 57.9904C173.367 59.3685 172.962 60.9696 172.962 62.7936C172.962 64.6176 173.367 66.2389 174.178 67.6576C175.029 69.0357 176.204 70.1301 177.704 70.9408C179.244 71.7109 180.967 72.096 182.872 72.096ZM210.192 80V47.5328H217.792V80H210.192ZM214.022 42.1824C212.604 42.1824 211.428 41.7365 210.496 40.8448C209.604 39.9531 209.158 38.8789 209.158 37.6224C209.158 36.3253 209.604 35.2512 210.496 34.4C211.428 33.5083 212.604 33.0624 214.022 33.0624C215.441 33.0624 216.596 33.488 217.488 34.3392C218.42 35.1499 218.886 36.1835 218.886 37.44C218.886 38.7776 218.44 39.9125 217.549 40.8448C216.657 41.7365 215.481 42.1824 214.022 42.1824ZM227.767 80V34.8864H235.367V80H227.767ZM260.603 80.4256C256.995 80.4256 253.834 79.7163 251.118 78.2976C248.443 76.8384 246.355 74.8523 244.855 72.3392C243.396 69.8261 242.667 66.9685 242.667 63.7664C242.667 60.5237 243.376 57.6661 244.795 55.1936C246.254 52.6805 248.24 50.7147 250.753 49.296C253.307 47.8773 256.205 47.168 259.447 47.168C262.609 47.168 265.426 47.8571 267.899 49.2352C270.371 50.6133 272.317 52.5589 273.735 55.072C275.154 57.5851 275.863 60.544 275.863 63.9488C275.863 64.2731 275.843 64.6379 275.803 65.0432C275.803 65.4485 275.782 65.8336 275.742 66.1984H248.686V61.152H271.729L268.75 62.7328C268.79 60.8683 268.405 59.2267 267.595 57.808C266.784 56.3893 265.669 55.2747 264.251 54.464C262.873 53.6533 261.271 53.248 259.447 53.248C257.583 53.248 255.941 53.6533 254.523 54.464C253.145 55.2747 252.05 56.4096 251.239 57.8688C250.469 59.2875 250.084 60.9696 250.084 62.9152V64.1312C250.084 66.0768 250.53 67.7995 251.422 69.2992C252.314 70.7989 253.57 71.9541 255.191 72.7648C256.813 73.5755 258.677 73.9808 260.785 73.9808C262.609 73.9808 264.251 73.6971 265.71 73.1296C267.169 72.5621 268.466 71.6704 269.601 70.4544L273.675 75.136C272.215 76.8384 270.371 78.1557 268.142 79.088C265.953 79.9797 263.44 80.4256 260.603 80.4256ZM293.196 80.4256C290.48 80.4256 287.866 80.0811 285.353 79.392C282.88 78.6624 280.914 77.7909 279.455 76.7776L282.373 71.0016C283.833 71.9339 285.575 72.704 287.602 73.312C289.629 73.92 291.655 74.224 293.682 74.224C296.074 74.224 297.796 73.8997 298.85 73.2512C299.945 72.6027 300.492 71.7312 300.492 70.6368C300.492 69.7451 300.127 69.0763 299.397 68.6304C298.668 68.144 297.715 67.7792 296.54 67.536C295.364 67.2928 294.047 67.0699 292.588 66.8672C291.169 66.6645 289.73 66.4011 288.271 66.0768C286.852 65.712 285.555 65.2053 284.38 64.5568C283.204 63.8677 282.252 62.9557 281.522 61.8208C280.793 60.6859 280.428 59.1861 280.428 57.3216C280.428 55.2544 281.015 53.4709 282.191 51.9712C283.366 50.4309 285.008 49.2555 287.116 48.4448C289.264 47.5936 291.797 47.168 294.716 47.168C296.905 47.168 299.114 47.4112 301.343 47.8976C303.572 48.384 305.417 49.0731 306.876 49.9648L303.957 55.7408C302.417 54.8085 300.857 54.1803 299.276 53.856C297.735 53.4912 296.195 53.3088 294.655 53.3088C292.345 53.3088 290.622 53.6533 289.487 54.3424C288.393 55.0315 287.845 55.9029 287.845 56.9568C287.845 57.9296 288.21 58.6592 288.94 59.1456C289.669 59.632 290.622 60.0171 291.797 60.3008C292.973 60.5845 294.27 60.8277 295.689 61.0304C297.148 61.1925 298.587 61.456 300.005 61.8208C301.424 62.1856 302.721 62.6923 303.897 63.3408C305.113 63.9488 306.085 64.8203 306.815 65.9552C307.545 67.0901 307.909 68.5696 307.909 70.3936C307.909 72.4203 307.301 74.1835 306.085 75.6832C304.91 77.1829 303.228 78.3584 301.039 79.2096C298.85 80.0203 296.236 80.4256 293.196 80.4256ZM329.046 80.4256C325.723 80.4256 322.764 79.7163 320.17 78.2976C317.575 76.8384 315.528 74.8523 314.029 72.3392C312.529 69.8261 311.779 66.9685 311.779 63.7664C311.779 60.5237 312.529 57.6661 314.029 55.1936C315.528 52.6805 317.575 50.7147 320.17 49.296C322.764 47.8773 325.723 47.168 329.046 47.168C332.411 47.168 335.39 47.8773 337.984 49.296C340.619 50.7147 342.666 52.6603 344.125 55.1328C345.625 57.6053 346.374 60.4832 346.374 63.7664C346.374 66.9685 345.625 69.8261 344.125 72.3392C342.666 74.8523 340.619 76.8384 337.984 78.2976C335.39 79.7163 332.411 80.4256 329.046 80.4256ZM329.046 73.92C330.911 73.92 332.573 73.5147 334.032 72.704C335.491 71.8933 336.626 70.7179 337.437 69.1776C338.288 67.6373 338.714 65.8336 338.714 63.7664C338.714 61.6587 338.288 59.8549 337.437 58.3552C336.626 56.8149 335.491 55.6395 334.032 54.8288C332.573 54.0181 330.931 53.6128 329.107 53.6128C327.243 53.6128 325.581 54.0181 324.122 54.8288C322.703 55.6395 321.568 56.8149 320.717 58.3552C319.866 59.8549 319.44 61.6587 319.44 63.7664C319.44 65.8336 319.866 67.6373 320.717 69.1776C321.568 70.7179 322.703 71.8933 324.122 72.704C325.581 73.5147 327.222 73.92 329.046 73.92ZM354.675 80V45.7088C354.675 42.304 355.669 39.5883 357.655 37.5616C359.681 35.4944 362.559 34.4608 366.288 34.4608C367.626 34.4608 368.882 34.6027 370.058 34.8864C371.274 35.1701 372.287 35.616 373.098 36.224L371.031 41.9392C370.463 41.4933 369.815 41.1691 369.085 40.9664C368.355 40.7232 367.606 40.6016 366.835 40.6016C365.255 40.6016 364.059 41.0475 363.248 41.9392C362.438 42.7904 362.032 44.0875 362.032 45.8304V49.4784L362.275 52.8832V80H354.675ZM349.325 53.856V47.776H370.97V53.856H349.325ZM388.306 80.4256C384.739 80.4256 381.983 79.5136 380.038 77.6896C378.092 75.8251 377.119 73.0891 377.119 69.4816V40.3584H384.719V69.2992C384.719 70.8395 385.104 72.0352 385.874 72.8864C386.685 73.7376 387.8 74.1632 389.218 74.1632C390.921 74.1632 392.339 73.7173 393.474 72.8256L395.602 78.2368C394.711 78.9664 393.616 79.5136 392.319 79.8784C391.022 80.2432 389.685 80.4256 388.306 80.4256ZM371.769 53.856V47.776H393.414V53.856H371.769Z" fill="white"/>
</svg>
