<svg version="1.2" xmlns="http://www.w3.org/2000/svg" viewBox="0 0 160 41" width="160" height="41">
	<title>acme-logo-dark-svg</title>
	<style>
		.s0 { fill: #ffffff } 
	</style>
	<path id="Layer" fill-rule="evenodd" class="s0" d="m33.8 38.3h-4.3q-0.8 0-1.2-0.4-0.5-0.4-0.7-0.9l-2.9-7.7h-14.9l-2.9 7.7q-0.1 0.5-0.6 0.9-0.5 0.4-1.2 0.4h-4.4l13.7-34.6h5.7zm-10.6-13l-4.8-12.6q-0.5-1.4-1.1-3.7-0.3 1.1-0.6 2.1-0.3 0.9-0.6 1.6l-4.7 12.6zm37.7 5.3q0.4 0 0.8 0.4l2.2 2.4q-2.1 2.5-5.2 3.9-3 1.4-7.3 1.4-3.8 0-6.9-1.3-3-1.3-5.2-3.7-2.2-2.3-3.3-5.5-1.2-3.3-1.2-7.2 0-3.9 1.2-7.1 1.3-3.3 3.5-5.6 2.3-2.4 5.4-3.6 3.1-1.3 6.9-1.3 3.8 0 6.6 1.2 2.9 1.2 5 3.2l-1.8 2.6q-0.2 0.3-0.5 0.5-0.3 0.2-0.7 0.2-0.5 0-1.1-0.5-0.6-0.4-1.6-1-0.9-0.5-2.4-0.9-1.4-0.5-3.5-0.5-2.5 0-4.5 0.9-2.1 0.8-3.6 2.5-1.5 1.6-2.3 4-0.8 2.4-0.8 5.4 0 3.1 0.8 5.5 0.9 2.4 2.4 4 1.5 1.6 3.6 2.5 2 0.9 4.3 0.9 1.5 0 2.6-0.2 1.2-0.1 2.1-0.5 1-0.3 1.8-0.9 0.9-0.5 1.7-1.3 0.5-0.4 1-0.4zm44.6-26.9v34.6h-4.9v-23.7q0-0.6 0-1.2 0.1-0.7 0.1-1.4l-11.1 20.5q-0.6 1.3-2 1.3h-0.8q-1.3 0-2-1.3l-11.2-20.6q0 0.7 0.1 1.4 0 0.7 0 1.3v23.7h-4.9v-34.6h4.2q0.7 0 1.1 0.2 0.4 0.1 0.8 0.8l11.1 20.1q0.3 0.7 0.6 1.4 0.4 0.7 0.6 1.5 0.3-0.8 0.6-1.5 0.4-0.8 0.7-1.5l10.9-20q0.4-0.7 0.8-0.8 0.4-0.2 1.1-0.2zm29.8 30.1v4.5h-21.6v-34.6h21.6v4.6h-15.9v10.4h12.7v4.4h-12.7v10.7z"/>
	<path id="Layer" class="s0" d="m146.2 30.6v6.4h-1.4v-6.4zm0.2-2q0 0.2 0 0.4-0.1 0.1-0.2 0.3-0.2 0.1-0.3 0.1-0.2 0.1-0.4 0.1-0.2 0-0.3-0.1-0.2 0-0.3-0.1-0.1-0.2-0.2-0.3-0.1-0.2-0.1-0.4 0-0.2 0.1-0.3 0.1-0.2 0.2-0.3 0.1-0.2 0.3-0.2 0.1-0.1 0.3-0.1 0.2 0 0.4 0.1 0.1 0 0.3 0.2 0.1 0.1 0.2 0.3 0 0.1 0 0.3zm2.8 2.8q0.2-0.2 0.4-0.4 0.2-0.2 0.5-0.3 0.2-0.1 0.5-0.2 0.3 0 0.6 0 0.6 0 1 0.1 0.4 0.2 0.6 0.5 0.3 0.4 0.5 0.8 0.1 0.5 0.1 1v4.1h-1.3v-4.1q0-0.6-0.4-1-0.2-0.4-0.9-0.4-0.4 0-0.8 0.2-0.4 0.2-0.7 0.6v4.7h-1.4v-6.4h0.8q0.3 0 0.4 0.2zm10.3 0.4q0 0.1-0.1 0.2 0 0-0.1 0-0.1 0-0.3-0.1-0.1-0.1-0.2-0.1-0.2-0.1-0.4-0.2-0.3-0.1-0.6-0.1-0.4 0-0.8 0.2-0.3 0.1-0.5 0.4-0.3 0.3-0.4 0.7-0.1 0.5-0.1 1 0 0.5 0.1 0.9 0.2 0.5 0.4 0.8 0.2 0.2 0.5 0.4 0.4 0.2 0.8 0.2 0.3 0 0.6-0.1 0.2-0.1 0.4-0.3 0.2-0.1 0.3-0.2 0.1-0.1 0.2-0.1 0.2 0 0.3 0.2l0.4 0.5q-0.3 0.3-0.5 0.4-0.3 0.2-0.6 0.4-0.4 0.1-0.7 0.1-0.3 0.1-0.7 0.1-0.6 0-1.1-0.2-0.5-0.2-0.9-0.7-0.4-0.4-0.6-1-0.3-0.6-0.3-1.4 0-0.7 0.2-1.3 0.2-0.7 0.6-1.1 0.4-0.4 1-0.7 0.6-0.2 1.3-0.2 0.7 0 1.3 0.2 0.5 0.2 0.9 0.6z"/>
</svg>