<svg width="24" height="25" viewBox="0 0 24 25" fill="none" xmlns="http://www.w3.org/2000/svg">
<g clip-path="url(#clip0_48_570)">
<path fill-rule="evenodd" clip-rule="evenodd" d="M22 22H18V15.001C18 13.081 17.153 12.0098 15.634 12.0098C13.981 12.0098 13 13.126 13 15.001V22H9V9H13V10.4619C13 10.4619 14.255 8.25977 17.083 8.25977C19.912 8.25977 22 9.98611 22 13.5581V22ZM4.442 6.9209C3.093 6.9209 2 5.81896 2 4.45996C2 3.10196 3.093 2 4.442 2C5.79 2 6.883 3.10196 6.883 4.45996C6.884 5.81896 5.79 6.9209 4.442 6.9209ZM2 22H7V9H2V22Z" fill="white"/>
</g>
<defs>
<clipPath id="clip0_48_570">
<rect width="20" height="20" fill="white" transform="translate(2 2)"/>
</clipPath>
</defs>
</svg>
