<?xml version="1.0" encoding="UTF-8" standalone="no"?> <svg xmlns="http://www.w3.org/2000/svg" viewBox="0 0 512 512"><g id="Address_location"><path d="M327.9166,330.95l-49.2982,67.5545a27.9975,27.9975,0,0,1-45.2334,0L184.0859,330.95C123.3179,339.73,81,359.2774,81,382c0,30.9279,78.35,56,175,56s175-25.0721,175-56C431,359.2778,388.6847,339.7305,327.9166,330.95Z"/><path d="M256,382l92.27-126.4435a114.2248,114.2248,0,1,0-184.54,0Zm0-244.4737a50.7,50.7,0,1,1-50.7,50.7A50.7,50.7,0,0,1,256,137.5264Z"/></g></svg>