<svg width="24" height="25" viewBox="0 0 24 25" fill="none" xmlns="http://www.w3.org/2000/svg">
<path fill-rule="evenodd" clip-rule="evenodd" d="M8.73521 19.5016C15.3766 19.5016 19.0092 14.1149 19.0092 9.44399C19.0092 9.29064 19.0092 9.13816 18.9987 8.98654C19.7053 8.48688 20.3151 7.86662 20.8 7.15677C20.1418 7.44278 19.4422 7.63058 18.7267 7.71328C19.48 7.27134 20.0441 6.577 20.3143 5.75773C19.605 6.16952 18.8297 6.45983 18.021 6.61577C16.6535 5.19261 14.3663 5.12369 12.9117 6.46242C11.9745 7.32562 11.5759 8.61267 11.8671 9.84026C8.96401 9.69726 6.25889 8.35508 4.42497 6.14713C3.46665 7.76238 3.95681 9.82821 5.54345 10.8654C4.96881 10.849 4.40649 10.6974 3.90401 10.4235V10.4683C3.90489 12.1508 5.11665 13.5998 6.80097 13.9331C6.26945 14.0752 5.71153 14.096 5.17121 13.9934C5.64377 15.4339 6.99985 16.4202 8.54425 16.4487C7.26561 17.4324 5.68601 17.9665 4.05977 17.9649C3.77289 17.964 3.48601 17.9476 3.20001 17.914C4.85177 18.9513 6.77281 19.5017 8.73521 19.4991" fill="white"/>
</svg>
